# xmcd CD database file
#
# Track frame offsets:
#	150
#	19192
#	31311
#	47440
#	59538
#	71619
#	84988
#	100179
#	111656
#	125211
#	138949
#	151804
#	166122
#	177979
#	196783
#	215958
#	229247
#	244081
#	260009
#
# Disc length: 3626 seconds
#
# Revision: 1
# Processed by: cddbd v1.5.2PL0 Copyright (c) Steve Scherf et al.
# Submitted via: CDex 1.70beta2
#
DISCID=100e2813
DTITLE=Various Artist - The Cradle of Jazz CD 3
DYEAR=2004
DGENRE=Jazz
TTITLE0=Bill Coleman - I'M Fer It Too
TTITLE1=Fats Waller - I Wish I Where Twins
TTITLE2=Eddie Condon - I'm Gonna Stop Mr. Henry Lee
TTITLE3='Jelly Roll' Morton - Mamies Blues
TTITLE4=Fats Waller - I'Ve Got My Fingers Crossed
TTITLE5=Fats Waller - If It Isn'T Love
TTITLE6=Fats Waller - I'M Growing Fonder Of You
TTITLE7=Fats Waller - Mandy
TTITLE8=Eddie Condon - Nobody Knows You When Your'Re Down And Out
TTITLE9=Bill Coleman - I'M In The Mood For Love
TTITLE10=Bill Coleman - Indiana
TTITLE11=Red Nichols - Peg O'My Heart
TTITLE12=Red Nichols - The Darktown Strutters Ball
TTITLE13=Eddie Condon - That'S A Plenty
TTITLE14=Eddie Condon - Panama
TTITLE15=Red Nichols - The Darktown Strutters Ball
TTITLE16=Fats Waller - Tell Me With Your Kisses
TTITLE17=Eddie Condon - That'S A Serious Thing
TTITLE18=Fats Waller - The Minor Drags
EXTD=YEAR: 2004
EXTT0=
EXTT1=
EXTT2=
EXTT3=
EXTT4=
EXTT5=
EXTT6=
EXTT7=
EXTT8=
EXTT9=
EXTT10=
EXTT11=
EXTT12=
EXTT13=
EXTT14=
EXTT15=
EXTT16=
EXTT17=
EXTT18=
PLAYORDER=
